<svg xmlns="http://www.w3.org/2000/svg" height="24" viewBox="0 -960 960 960" width="24"><path d="M294.692-247h66v-80h80v-66h-80v-80h-66v80h-80v66h80v80ZM507-374.692h246v-61.385H507v61.385Zm0 95.385h166v-61.385H507v61.385ZM184.615-88q-38.34 0-64.478-26.137Q94-140.275 94-178.615v-399.77q0-38.34 26.137-64.478Q146.275-669 184.615-669H374v-138q0-27.225 19.387-46.613Q412.775-873 440-873h80q27.225 0 46.613 19.387Q586-834.225 586-807v138h189.385q38.34 0 64.478 26.137Q866-616.725 866-578.385v399.77q0 38.34-26.137 64.478Q813.725-88 775.385-88h-590.77ZM440-612.23h80V-807h-80v194.769Z"/></svg>