<svg xmlns="http://www.w3.org/2000/svg" height="24" viewBox="0 -960 960 960" width="24"><path d="M464.692-77.538Q450-77.538 438.885-88q-11.116-10.462-11.116-26.692 0-8.769 4.385-18.693 4.385-9.923 13.154-18.692l132.308-132.308-30.077-30.077-133.077 132.308q-8.77 8.769-18.308 13.154-9.539 4.385-18.308 4.385-15.461 0-26.692-10.731t-11.231-26.192q0-7.231 4.769-17.539 4.77-10.308 13.539-19.077l132.308-132.308-30.846-30.846-132.308 133.077q-8 8-17.923 12.769-9.924 4.77-17.924 4.77-16.23 0-27.076-10.846-10.847-10.847-10.847-27.077 0-8.77 4.385-18.308 4.385-9.539 13.154-18.308l123.077-123.077-30.077-30.846-123.846 123.077q-8.77 8.769-18.693 13.538-9.923 4.77-17.154 4.77-16.23 0-27.076-10.846-10.847-10.847-10.847-27.077 0-8.77 4.385-18.308 4.385-9.539 13.154-18.308l205.615-205.615 17.155 16.385q17 17 37.846 22.577 20.846 5.577 43.077 5.577 37.923 0 60.807-24.039 22.885-24.038 22.885-59.654 0-23-10.384-43.731-10.385-20.73-22.847-33.192l-47.923-47.923 39.23-39.231q17.154-17.923 43.347-27.769 26.192-9.846 56.884-9.846 35.846 0 65.769 11.346 29.924 11.346 41.308 22.731l112.308 111.538q30.615 30.615 44.961 60.269 14.347 29.654 14.347 74.731 0 40-16.462 74.808-16.461 34.808-54.846 73.192L501.308-95.077q-6.462 6.462-17.154 12-10.692 5.539-19.462 5.539ZM148.923-421.077l-41.385-40.384q-27-26.77-40.615-56.308-13.615-29.539-13.615-63 0-34.692 9.692-64T90.615-692l127.462-127.692q19.923-19.923 42.269-29.5 22.346-9.577 51.039-9.577 28.077 0 54.346 10.615 26.269 10.615 43.115 28.462l104.539 104.538q11 11 18.769 27.423 7.77 16.423 7.77 31.423 0 23-14.962 38.347Q510-602.615 487-602.615q-14 0-31.307-5.769-17.308-5.77-28.308-16.77l-35.923-37.462-242.539 241.539Z"/></svg>