<svg xmlns="http://www.w3.org/2000/svg" height="24" viewBox="0 -960 960 960" width="24" fill="#fff"><path d="M620-490q-43.5-35.5-80.5-70t-63.75-67Q449-659.5 434-689t-15-55q0-39.5 28.25-67.75T515-840q26.5 0 53.75 15.5t51.25 49q24-33.5 51.25-49T725-840q39.5 0 67.75 28.25T821-744q0 25.5-15 55t-41.75 62q-26.75 32.5-63.5 67T620-490Zm-79.5 351-311-92v-234h100l238 87q17.5 6.5 31 23.5T612-304h-25.5q-39 0-68-2.75t-50-10.75l-75-26.5-12.5 26.5 85.5 28q17 6 43 9t49.5 3h186.5q32 0 45.5 17.75T804.5-222l-264 83ZM99-182v-283h105v283H99Z"/></svg>