<svg xmlns="http://www.w3.org/2000/svg" height="24" viewBox="0 -960 960 960" width="24"><path d="m552.154-88.923-294.615-84.769V-522h86.923l249.846 92.923q31.538 11.923 49 39.885 17.462 27.961 17.462 61.5h-62.001q-34.077 0-66.5-2t-63.73-13.539l-66.385-24-16 44.308 97.077 36.308q19.231 6.461 38.577 7.077 19.346.615 39.577.615h197.384q39.616 0 72.5 13.923 32.885 13.923 32.885 49.615v28.77l-312 97.692ZM43.538-115.846V-522h148v406.154h-148Zm322.154-501.539H194.846q12.615-46.846 49.615-88.423 37-41.577 102.539-53.269V-857h-60v-66h213q26 0 53.808 9.885 27.808 9.884 53.654 26.192l-47.308 46.308q-15.231-8.462-30.577-12.423Q514.231-857 500-857h-87v97.923Q486.615-746.692 529.808-692 573-637.308 573-570v31.077l-207.308-78.462Zm362.539 22.231q-30.308 0-51.654-21.346-21.346-21.346-21.346-51.654 0-23.154 18.038-60.769 18.039-37.615 54.962-85.846 35.923 47.231 54.462 84.461 18.538 37.231 18.538 62.154 0 30.308-21.346 51.654-21.346 21.346-51.654 21.346Z"/></svg>